REM DIRINDEX 1\2,1\3
REM DIRNAME folder01,folder02,folder03
TITLE ""
FILE "1981-2000.mp3" MP3
  TRACK 01 AUDIO
    TITLE "0:"
    INDEX 01 00:00:00
  TRACK 02 AUDIO
    TITLE "2:cjc039_2961"
    INDEX 01 00:00:27
  TRACK 03 AUDIO
    TITLE "0:"
    INDEX 01 00:01:21
  TRACK 04 AUDIO
    TITLE "3:cjc039_2962"
    INDEX 01 00:02:02
  TRACK 05 AUDIO
    TITLE "0:"
    INDEX 01 00:05:09
  TRACK 06 AUDIO
    TITLE "2:cjc039_2963"
    INDEX 01 00:06:59
  TRACK 07 AUDIO
    TITLE "0:"
    INDEX 01 00:08:28
  TRACK 08 AUDIO
    TITLE "3:cjc039_2964"
    INDEX 01 00:09:08
  TRACK 09 AUDIO
    TITLE "0:"
    INDEX 01 00:12:54
  TRACK 10 AUDIO
    TITLE "2:cjc039_2965"
    INDEX 01 00:14:25
  TRACK 11 AUDIO
    TITLE "0:"
    INDEX 01 00:15:28
  TRACK 12 AUDIO
    TITLE "3:cjc039_2966"
    INDEX 01 00:16:10
  TRACK 13 AUDIO
    TITLE "0:"
    INDEX 01 00:19:11
  TRACK 14 AUDIO
    TITLE "2:cjc039_2967"
    INDEX 01 00:20:67
  TRACK 15 AUDIO
    TITLE "0:"
    INDEX 01 00:22:09
  TRACK 16 AUDIO
    TITLE "3:cjc039_2968"
    INDEX 01 00:22:60
  TRACK 17 AUDIO
    TITLE "0:"
    INDEX 01 00:26:56
  TRACK 18 AUDIO
    TITLE "2:cjc039_2969"
    INDEX 01 00:28:27
  TRACK 19 AUDIO
    TITLE "0:"
    INDEX 01 00:29:34
  TRACK 20 AUDIO
    TITLE "3:cjc039_2970"
    INDEX 01 00:30:14
  TRACK 21 AUDIO
    TITLE "0:"
    INDEX 01 00:34:30
  TRACK 22 AUDIO
    TITLE "2:cjc039_2971"
    INDEX 01 00:36:03
  TRACK 23 AUDIO
    TITLE "0:"
    INDEX 01 00:37:32
  TRACK 24 AUDIO
    TITLE "3:cjc039_2972"
    INDEX 01 00:38:10
  TRACK 25 AUDIO
    TITLE "0:"
    INDEX 01 00:41:14
  TRACK 26 AUDIO
    TITLE "2:cjc039_2973"
    INDEX 01 00:42:63
  TRACK 27 AUDIO
    TITLE "0:"
    INDEX 01 00:43:68
  TRACK 28 AUDIO
    TITLE "3:cjc039_2974"
    INDEX 01 00:44:48
  TRACK 29 AUDIO
    TITLE "0:"
    INDEX 01 00:47:17
  TRACK 30 AUDIO
    TITLE "2:cjc039_2975"
    INDEX 01 00:48:67
  TRACK 31 AUDIO
    TITLE "0:"
    INDEX 01 00:50:15
  TRACK 32 AUDIO
    TITLE "3:cjc039_2976"
    INDEX 01 00:50:68
  TRACK 33 AUDIO
    TITLE "0:"
    INDEX 01 00:54:54
  TRACK 34 AUDIO
    TITLE "2:cjc039_2977"
    INDEX 01 00:56:27
  TRACK 35 AUDIO
    TITLE "0:"
    INDEX 01 00:57:35
  TRACK 36 AUDIO
    TITLE "3:cjc039_2978"
    INDEX 01 00:58:07
  TRACK 37 AUDIO
    TITLE "0:"
    INDEX 01 01:01:09
  TRACK 38 AUDIO
    TITLE "2:cjc039_2979"
    INDEX 01 01:02:57
  TRACK 39 AUDIO
    TITLE "0:"
    INDEX 01 01:04:01
  TRACK 40 AUDIO
    TITLE "3:cjc039_2980"
    INDEX 01 01:04:48
  TRACK 41 AUDIO
    TITLE "0:"
    INDEX 01 01:07:68
  TRACK 42 AUDIO
    TITLE "2:cjc039_2981"
    INDEX 01 01:09:38
  TRACK 43 AUDIO
    TITLE "0:"
    INDEX 01 01:10:53
  TRACK 44 AUDIO
    TITLE "3:cjc039_2982"
    INDEX 01 01:11:29
  TRACK 45 AUDIO
    TITLE "0:"
    INDEX 01 01:15:17
  TRACK 46 AUDIO
    TITLE "2:cjc039_2983"
    INDEX 01 01:16:73
  TRACK 47 AUDIO
    TITLE "0:"
    INDEX 01 01:18:27
  TRACK 48 AUDIO
    TITLE "3:cjc039_2984"
    INDEX 01 01:18:72
  TRACK 49 AUDIO
    TITLE "0:"
    INDEX 01 01:22:62
  TRACK 50 AUDIO
    TITLE "2:cjc039_2985"
    INDEX 01 01:24:36
  TRACK 51 AUDIO
    TITLE "0:"
    INDEX 01 01:25:53
  TRACK 52 AUDIO
    TITLE "3:cjc039_2986"
    INDEX 01 01:26:30
  TRACK 53 AUDIO
    TITLE "0:"
    INDEX 01 01:29:68
  TRACK 54 AUDIO
    TITLE "2:cjc039_2987"
    INDEX 01 01:31:45
  TRACK 55 AUDIO
    TITLE "0:"
    INDEX 01 01:33:44
  TRACK 56 AUDIO
    TITLE "3:cjc039_2988"
    INDEX 01 01:34:22
  TRACK 57 AUDIO
    TITLE "0:"
    INDEX 01 01:38:71
  TRACK 58 AUDIO
    TITLE "2:cjc039_2989"
    INDEX 01 01:40:48
  TRACK 59 AUDIO
    TITLE "0:"
    INDEX 01 01:41:44
  TRACK 60 AUDIO
    TITLE "3:cjc039_2990"
    INDEX 01 01:42:22
  TRACK 61 AUDIO
    TITLE "0:"
    INDEX 01 01:44:68
  TRACK 62 AUDIO
    TITLE "2:cjc039_2991"
    INDEX 01 01:46:45
  TRACK 63 AUDIO
    TITLE "0:"
    INDEX 01 01:48:20
  TRACK 64 AUDIO
    TITLE "3:cjc039_2992"
    INDEX 01 01:48:67
  TRACK 65 AUDIO
    TITLE "0:"
    INDEX 01 01:52:49
  TRACK 66 AUDIO
    TITLE "2:cjc039_2993"
    INDEX 01 01:54:21
  TRACK 67 AUDIO
    TITLE "0:"
    INDEX 01 01:55:44
  TRACK 68 AUDIO
    TITLE "3:cjc039_2994"
    INDEX 01 01:56:20
  TRACK 69 AUDIO
    TITLE "0:"
    INDEX 01 01:59:44
  TRACK 70 AUDIO
    TITLE "2:cjc039_2995"
    INDEX 01 02:01:21
  TRACK 71 AUDIO
    TITLE "0:"
    INDEX 01 02:02:67
  TRACK 72 AUDIO
    TITLE "3:cjc039_2996"
    INDEX 01 02:03:41
  TRACK 73 AUDIO
    TITLE "0:"
    INDEX 01 02:07:53
  TRACK 74 AUDIO
    TITLE "2:cjc039_2997"
    INDEX 01 02:09:21
  TRACK 75 AUDIO
    TITLE "0:"
    INDEX 01 02:10:38
  TRACK 76 AUDIO
    TITLE "3:cjc039_2998"
    INDEX 01 02:11:15
  TRACK 77 AUDIO
    TITLE "0:"
    INDEX 01 02:15:00
  TRACK 78 AUDIO
    TITLE "2:cjc039_2999"
    INDEX 01 02:16:50
  TRACK 79 AUDIO
    TITLE "0:"
    INDEX 01 02:18:00
  TRACK 80 AUDIO
    TITLE "3:cjc039_3000"
    INDEX 01 02:18:49
  TRACK 81 AUDIO
    TITLE "0:"
    INDEX 01 02:22:07
